<?xml version="1.0" encoding="UTF-8"?>
<svg viewBox="0 0 615.18 879.36" xmlns="http://www.w3.org/2000/svg">
 <path d="m289.39 0.2558c-87.797 90.916 15.128 225.76-28.771 236.37 0 0-54.492-86.372-116.56-77.28 96.736 129.11 40.625 210.03 40.871 209.12-60.55-75.763-138.48-77.394-121.1-65.168 72.644 51.087 49.95 187.9 49.95 187.9s-77.204-66.675-113.53-31.824c98.684 50.12 56.019 107.58 54.505 177.28-3.3295 138.42 83.297 200.53 98.973 210.62h-41.462v31.824h392.07v-31.824h-48.495c31.18-13.444 149.8-74.121 158.99-222.74 0 0 2.9747-86.512-25.734-121.23-7.5688 31.821-27.253 34.848-27.253 34.848-12.11 1.5153 16.655-71.416 16.655-103.02 6.1e-5 -72.748-51.468-100.02-51.468-100.02s12.118 80.304-33.295 106.06c-9.1146-18.872 26.278-225.59-102.94-266.69 33.302 68.187 25.734 93.952 25.734 93.952-6.1e-5 0-3.2497 34.501-4.5395 25.76-9.8933-67.042-69.642-131.82-69.642-131.82s-33.184-28.785-52.971-162.13zm89.303 501.55c18.165 25.76 0 154.54 0 154.54 30.275-9.0916 66.231-68.498 74.182-77.28 9.9634-11.006 4.5378 74.258-31.792 110.62 39.196-8.9305 59.029-40.912 59.029-40.912s-14.368 141.96-181.64 186.37c-30.275 18.183-189.95-81.167-102.94-234.86 28.761 134.86 78.721 134.86 78.721 134.86-6.1e-5 0-37.842-121.22-4.5395-157.58 0 0 17.821 64.56 52.971 69.696 21.192-103.04 56.008-145.46 56.008-145.46z" fill="#29abe2" fill-rule="evenodd" stroke="#000" stroke-width=".512"/>
</svg>
